<svg width="15" height="16" viewBox="0 0 15 16" fill="none" xmlns="http://www.w3.org/2000/svg" class="ml-1">
    <path
        d="M7.58842 4.61869C7.44217 4.69758 7.351 4.84761 7.351 5.01079V7.55169H2.33393C2.0806 7.55169 1.875 7.75253 1.875 7.99998C1.875 8.24744 2.0806 8.44827 2.33393 8.44827H7.351V10.9892C7.351 11.153 7.44217 11.303 7.58842 11.3813C7.73467 11.4608 7.91335 11.4554 8.0547 11.3687L12.9108 8.37954C13.0442 8.29705 13.125 8.1542 13.125 7.99998C13.125 7.84577 13.0442 7.70292 12.9108 7.62043L8.0547 4.63124C7.98004 4.58581 7.89499 4.5625 7.80993 4.5625C7.73406 4.5625 7.65757 4.58163 7.58842 4.61869Z"
        fill="white"
    />
</svg>