<svg width="50" height="51" viewBox="0 0 50 51" fill="none" xmlns="http://www.w3.org/2000/svg">
    <circle cx="25" cy="25.1309" r="25" fill="white" />
    <path
        d="M29.8362 38.1309C29.5041 38.1309 29.1855 37.9991 28.9507 37.7644C28.7158 37.5298 28.5838 37.2116 28.5838 36.8798V33.627C28.6228 33.2528 28.5827 32.8747 28.4662 32.5169C28.3497 32.1592 28.1594 31.8299 27.9076 31.5502C27.7516 31.3813 27.6453 31.1727 27.6002 30.9474C27.5551 30.7221 27.573 30.4887 27.6519 30.2729C27.7308 30.0571 27.8677 29.8671 28.0476 29.7239C28.2274 29.5807 28.4433 29.4897 28.6715 29.4609C31.7274 29.0981 34.5452 28.1223 34.5452 22.8302C34.5462 21.842 34.2542 20.8755 33.7061 20.0528C33.2004 19.2955 33.0157 18.3687 33.1927 17.4756C33.3055 16.893 33.3055 16.2942 33.1927 15.7116C32.2549 16.0283 31.3719 16.4884 30.5752 17.0753C30.4245 17.1821 30.2521 17.2544 30.0702 17.2868C29.8883 17.3193 29.7015 17.3111 29.5231 17.2629C27.263 16.625 24.8701 16.625 22.6099 17.2629C22.4316 17.3111 22.2447 17.3193 22.0629 17.2868C21.881 17.2544 21.7085 17.1821 21.5579 17.0753C20.7563 16.4816 19.864 16.0211 18.9154 15.7116C18.7963 16.2936 18.7963 16.8936 18.9154 17.4756C19.0795 18.38 18.8865 19.3127 18.3768 20.0778C17.8311 20.9063 17.5395 21.876 17.5377 22.8677C17.5377 27.7344 19.8922 29.0355 23.424 29.4859C23.6551 29.5146 23.8736 29.607 24.055 29.7529C24.2364 29.8987 24.3735 30.0922 24.4509 30.3116C24.5238 30.5245 24.5378 30.7531 24.4915 30.9733C24.4452 31.1934 24.3403 31.3971 24.1879 31.5627C23.9443 31.8228 23.7574 32.1305 23.6388 32.4665C23.5203 32.8024 23.4727 33.1592 23.4991 33.5144V36.8798C23.4991 37.2116 23.3672 37.5298 23.1323 37.7644C22.8974 37.9991 22.5789 38.1309 22.2467 38.1309C21.9146 38.1309 21.596 37.9991 21.3611 37.7644C21.1263 37.5298 20.9943 37.2116 20.9943 36.8798V36.1667C19.7637 36.3081 18.5171 36.1433 17.3656 35.6871C16.2141 35.2309 15.1934 34.4974 14.3942 33.5519C13.9834 33.0971 13.4906 32.7236 12.9414 32.451C12.7819 32.4099 12.632 32.3378 12.5004 32.2389C12.3687 32.14 12.2579 32.0161 12.1741 31.8744C12.0904 31.7326 12.0354 31.5758 12.0124 31.4129C11.9893 31.2499 11.9986 31.084 12.0397 30.9247C12.0808 30.7653 12.153 30.6156 12.252 30.4841C12.351 30.3526 12.475 30.2418 12.6169 30.1582C12.7588 30.0745 12.9158 30.0196 13.0789 29.9966C13.242 29.9735 13.4081 29.9828 13.5676 30.0239C14.531 30.3745 15.3919 30.9592 16.0724 31.7254C17.3248 32.9764 18.5772 34.0774 20.9568 33.627C20.9149 32.9553 21.013 32.2822 21.2448 31.6503C18.6649 30.9997 14.9828 29.1481 14.9828 22.8928C14.9795 21.411 15.4153 19.9615 16.2352 18.7267C16.3875 18.4987 16.4458 18.2209 16.398 17.951C16.145 16.6006 16.2885 15.2058 16.8113 13.9351C16.8824 13.7656 16.9899 13.6139 17.1263 13.4906C17.2626 13.3674 17.4245 13.2757 17.6003 13.222C18.0262 13.0968 19.5541 12.8466 22.4471 14.7232C24.7891 14.1603 27.2313 14.1603 29.5732 14.7232C32.4663 12.8466 33.9942 13.0843 34.4075 13.222C34.5833 13.2757 34.7452 13.3674 34.8816 13.4906C35.0179 13.6139 35.1255 13.7656 35.1965 13.9351C35.7204 15.21 35.8639 16.609 35.6098 17.9635C35.5842 18.0856 35.5831 18.2115 35.6068 18.3339C35.6305 18.4564 35.6783 18.5729 35.7475 18.6766C36.5699 19.915 37.0057 21.3692 36.9999 22.8552C36.9999 29.1982 33.3429 31.0373 30.738 31.6128C30.9674 32.2841 31.0611 32.9943 31.0135 33.7021V36.8798C31.0141 37.199 30.8925 37.5063 30.6736 37.7389C30.4548 37.9715 30.1552 38.1117 29.8362 38.1309Z"
        fill="#2DCC70"
    />
</svg>