<svg width="50" height="51" viewBox="0 0 50 51" fill="none" xmlns="http://www.w3.org/2000/svg">
    <circle cx="25" cy="25.1309" r="25" fill="white" />
    <path
        fill-rule="evenodd"
        clip-rule="evenodd"
        d="M30.6862 27.3106C30.3493 27.143 28.6978 26.3353 28.3903 26.2228C28.0828 26.1114 27.859 26.0563 27.634 26.3915C27.4102 26.7245 26.767 27.4783 26.5715 27.701C26.3748 27.9249 26.1792 27.9519 25.8435 27.7854C25.5077 27.6166 24.4248 27.2645 23.1418 26.126C22.1436 25.2395 21.4688 24.1449 21.2732 23.8096C21.0776 23.4755 21.2517 23.2944 21.4202 23.1279C21.5716 22.9783 21.7559 22.7375 21.9243 22.5429C22.0928 22.3471 22.1481 22.2076 22.2601 21.9838C22.3731 21.761 22.3166 21.5664 22.2318 21.3988C22.1481 21.2311 21.4767 19.5853 21.1963 18.9159C20.9239 18.2645 20.647 18.3534 20.4412 18.3421C20.2445 18.3331 20.0207 18.3309 19.7969 18.3309C19.5731 18.3309 19.2091 18.4141 18.9016 18.7494C18.593 19.0835 17.726 19.8924 17.726 21.5383C17.726 23.183 18.9287 24.7726 19.0972 24.9965C19.2656 25.2193 21.4654 28.5965 24.8351 30.0444C25.6377 30.3886 26.2628 30.5945 26.7501 30.7475C27.5549 31.0029 28.2874 30.9669 28.8662 30.8802C29.5105 30.7846 30.8535 30.0714 31.1338 29.2906C31.413 28.5099 31.413 27.8405 31.3294 27.701C31.2457 27.5615 31.0219 27.4783 30.685 27.3106H30.6862ZM24.5571 35.639H24.5525C22.5511 35.6394 20.5863 35.1039 18.8643 34.0887L18.4573 33.848L14.2273 34.9527L15.3566 30.8487L15.091 30.428C13.972 28.6554 13.3799 26.6039 13.3829 24.5105C13.3852 18.3793 18.3974 13.391 24.5616 13.391C27.5459 13.391 30.3516 14.5498 32.4609 16.6513C33.5013 17.6824 34.3259 18.9087 34.8871 20.259C35.4482 21.6094 35.7347 23.0571 35.7301 24.5184C35.7278 30.6496 30.7155 35.639 24.5571 35.639ZM34.0661 15.0549C32.8206 13.8072 31.3387 12.8179 29.7062 12.1443C28.0737 11.4707 26.3231 11.1263 24.5559 11.1309C17.1472 11.1309 11.1153 17.1328 11.113 24.5094C11.1119 26.8674 11.7302 29.1691 12.907 31.1975L11 38.1309L18.1261 36.2701C20.0974 37.339 22.3065 37.8991 24.5514 37.8991H24.5571C31.9658 37.8991 37.9977 31.8972 37.9999 24.5195C38.0054 22.7614 37.6605 21.0198 36.9853 19.3952C36.3101 17.7706 35.3179 16.2954 34.0661 15.0549Z"
        fill="#2DCC70"
    />
</svg>