<svg width="636" height="596" viewBox="0 0 636 596" fill="none" xmlns="http://www.w3.org/2000/svg">
<path d="M561.722 -123.349C544.686 -120.309 501.883 -111.604 479.84 -86.6381C448.198 -50.801 442.515 -34.4014 430.135 -3.90347C417.755 26.5945 420.249 50.8469 402.22 67.3482C384.191 83.8496 360.19 96.8469 282.854 67.4567C205.518 38.0665 170.931 62.7999 158.741 80.289C146.551 97.7781 150.157 114.914 137.711 155.667C124.826 197.859 65.1214 212.912 40.0556 215.526C14.9897 218.141 12.5539 220.082 3.28668 235.145C-5.9805 250.208 -7.70496 265.533 -26.4532 274.49C-45.2014 283.446 -84.3376 255.367 -105.795 287.919C-127.253 320.472 -105.891 357.51 -134.381 372.282C-162.87 387.054 -183.999 358.046 -208.097 365.043C-227.376 370.64 -239.185 381.593 -242.679 386.37" stroke="#FFF7DE" stroke-width="1.5"/>
<path d="M456.44 -121.789C471.253 -87.052 491.562 -10.0447 454.295 20.0912C407.712 57.761 386.682 23.1548 321.95 24.314C257.894 25.4611 251.253 94.7939 219.304 119.341C197.388 136.18 177.443 130.958 145.572 127.77C113.701 124.583 67.73 109.724 32.9796 185.099C-1.77078 260.474 -7.08525 253.153 -39.2824 277.948C-71.4796 302.742 -73.8365 331.244 -98.2741 348.357C-133.914 373.316 -167.659 341.781 -219.11 333.837C-260.271 327.482 -297.916 356.378 -311.593 371.62" stroke="#CF655E" stroke-width="1.5"/>
<ellipse cx="7.25349" cy="7.59889" rx="7.25349" ry="7.59889" transform="matrix(-0.769097 0.639132 0.639132 0.769097 431.384 -12.1274)" fill="#FFCF3D"/>
<circle cx="7.25349" cy="7.25349" r="7.25349" transform="matrix(-0.769097 0.639132 0.639132 0.769097 62.6082 201.805)" fill="white"/>
</svg>
