<svg width="50" height="51" viewBox="0 0 50 51" fill="none" xmlns="http://www.w3.org/2000/svg">
    <circle cx="25" cy="25.1309" r="25" fill="white" />
    <path
        fill-rule="evenodd"
        clip-rule="evenodd"
        d="M19.6405 12.2089C21.0267 12.145 21.4687 12.1309 25 12.1309C28.5313 12.1309 28.9733 12.1462 30.3584 12.2089C31.7435 12.2715 32.6889 12.4925 33.5162 12.8128C34.3825 13.1401 35.1684 13.6519 35.8184 14.3137C36.4802 14.9625 36.9907 15.7472 37.3169 16.6147C37.6384 17.442 37.8582 18.3874 37.922 19.7701C37.9858 21.1588 38 21.6008 38 25.1309C38 28.6621 37.9846 29.1041 37.922 30.4904C37.8594 31.8731 37.6384 32.8186 37.3169 33.6459C36.9907 34.5134 36.4793 35.2995 35.8184 35.9492C35.1684 36.611 34.3825 37.1216 33.5162 37.4478C32.6889 37.7692 31.7435 37.989 30.3607 38.0529C28.9733 38.1167 28.5313 38.1309 25 38.1309C21.4687 38.1309 21.0267 38.1155 19.6405 38.0529C18.2577 37.9902 17.3123 37.7692 16.485 37.4478C15.6175 37.1215 14.8314 36.6102 14.1816 35.9492C13.5203 35.3 13.0085 34.5144 12.6819 33.647C12.3616 32.8198 12.1418 31.8743 12.078 30.4916C12.0142 29.1029 12 28.6609 12 25.1309C12 21.5996 12.0154 21.1576 12.078 19.7725C12.1406 18.3874 12.3616 17.442 12.6819 16.6147C13.0089 15.7473 13.5211 14.9617 14.1828 14.3125C14.8317 13.6513 15.6169 13.1395 16.4838 12.8128C17.3111 12.4925 18.2565 12.2727 19.6393 12.2089H19.6405ZM30.2532 14.5489C28.8823 14.4862 28.471 14.4732 25 14.4732C21.529 14.4732 21.1177 14.4862 19.7468 14.5489C18.4787 14.6068 17.7909 14.8183 17.3324 14.9968C16.7261 15.2331 16.2924 15.5132 15.8374 15.9682C15.4061 16.3878 15.0741 16.8986 14.8659 17.4632C14.6875 17.9218 14.4759 18.6096 14.418 19.8777C14.3554 21.2486 14.3424 21.6599 14.3424 25.1309C14.3424 28.6019 14.3554 29.0131 14.418 30.384C14.4759 31.6521 14.6875 32.34 14.8659 32.7985C15.0739 33.3622 15.406 33.8739 15.8374 34.2935C16.2569 34.7249 16.7686 35.0569 17.3324 35.2649C17.7909 35.4434 18.4787 35.6549 19.7468 35.7129C21.1177 35.7755 21.5278 35.7885 25 35.7885C28.4722 35.7885 28.8823 35.7755 30.2532 35.7129C31.5213 35.6549 32.2091 35.4434 32.6676 35.2649C33.2739 35.0286 33.7076 34.7485 34.1626 34.2935C34.594 33.8739 34.9261 33.3622 35.1341 32.7985C35.3125 32.34 35.5241 31.6521 35.582 30.384C35.6446 29.0131 35.6576 28.6019 35.6576 25.1309C35.6576 21.6599 35.6446 21.2486 35.582 19.8777C35.5241 18.6096 35.3125 17.9218 35.1341 17.4632C34.8977 16.857 34.6176 16.4232 34.1626 15.9682C33.743 15.5369 33.2322 15.205 32.6676 14.9968C32.2091 14.8183 31.5213 14.6068 30.2532 14.5489ZM23.3395 29.1384C24.2669 29.5244 25.2994 29.5765 26.2609 29.2858C27.2224 28.9951 28.0531 28.3796 28.6112 27.5444C29.1693 26.7093 29.4201 25.7063 29.3208 24.7067C29.2215 23.7072 28.7783 22.7731 28.0668 22.064C27.6133 21.6108 27.0649 21.2637 26.4611 21.0479C25.8574 20.832 25.2132 20.7526 24.5751 20.8156C23.937 20.8785 23.3208 21.0822 22.7709 21.4118C22.2209 21.7415 21.7509 22.189 21.3946 22.7221C21.0384 23.2553 20.8048 23.8607 20.7106 24.495C20.6165 25.1292 20.6641 25.7765 20.8501 26.3901C21.0361 27.0037 21.3558 27.5685 21.7863 28.0437C22.2168 28.5189 22.7472 28.8928 23.3395 29.1384ZM20.2751 20.4059C20.8956 19.7855 21.6322 19.2933 22.4429 18.9575C23.2536 18.6217 24.1225 18.4488 25 18.4488C25.8775 18.4488 26.7464 18.6217 27.5571 18.9575C28.3678 19.2933 29.1044 19.7855 29.7249 20.4059C30.3454 21.0264 30.8376 21.7631 31.1734 22.5738C31.5092 23.3845 31.682 24.2534 31.682 25.1309C31.682 26.0084 31.5092 26.8773 31.1734 27.688C30.8376 28.4987 30.3454 29.2353 29.7249 29.8558C28.4718 31.1089 26.7722 31.8129 25 31.8129C23.2278 31.8129 21.5282 31.1089 20.2751 29.8558C19.022 28.6026 18.318 26.903 18.318 25.1309C18.318 23.3587 19.022 21.6591 20.2751 20.4059ZM33.164 19.444C33.3178 19.2989 33.4409 19.1245 33.526 18.931C33.6111 18.7375 33.6566 18.5289 33.6597 18.3176C33.6628 18.1062 33.6234 17.8964 33.5439 17.7005C33.4645 17.5047 33.3465 17.3267 33.197 17.1773C33.0476 17.0278 32.8696 16.9098 32.6738 16.8304C32.4779 16.7509 32.2681 16.7116 32.0567 16.7146C31.8454 16.7177 31.6368 16.7632 31.4433 16.8483C31.2498 16.9335 31.0754 17.0566 30.9304 17.2103C30.6483 17.5093 30.4938 17.9065 30.4998 18.3176C30.5058 18.7286 30.6718 19.1212 30.9625 19.4119C31.2531 19.7025 31.6457 19.8685 32.0567 19.8745C32.4678 19.8805 32.865 19.726 33.164 19.444Z"
        fill="#2DCC70"
    />
</svg>