<svg width="150" height="168" viewBox="0 0 150 168" fill="none" xmlns="http://www.w3.org/2000/svg">
<g filter="url(#filter0_dii_1580_1678)">
<path d="M90.9254 109.81C92.4157 110.114 94.0288 109.63 95.1111 108.561C124.572 79.3187 116.133 41.7884 112.995 31.3365C112.742 30.4967 112.25 29.749 111.578 29.1848C110.907 28.6207 110.085 28.2646 109.214 28.1603L69.3598 23.0199C68.726 22.9393 68.0822 22.992 67.4699 23.1747C66.8576 23.3574 66.2902 23.666 65.8041 24.0808L35.4632 50.0713C34.802 50.6309 34.3155 51.3689 34.0618 52.1972C33.8081 53.0255 33.7979 53.9093 34.0323 54.7433C36.9752 65.196 50.0223 101.443 90.9254 109.81Z" fill="url(#paint0_linear_1580_1678)"/>
</g>
<g filter="url(#filter1_dii_1580_1678)">
<path fill-rule="evenodd" clip-rule="evenodd" d="M96.7944 41.6032C99.572 43.0831 100.624 46.5345 99.1439 49.312L83.2558 79.1307C81.8182 81.8287 78.5079 82.9116 75.7537 81.585L62.237 75.0743C59.4015 73.7086 58.2101 70.3029 59.5759 67.4674C60.9417 64.632 64.3474 63.4406 67.1828 64.8064L75.7703 68.9427L89.0856 43.9527C90.5656 41.1752 94.0169 40.1233 96.7944 41.6032Z" fill="white"/>
</g>
<defs>
<filter id="filter0_dii_1580_1678" x="0.990726" y="11.4778" width="148.436" height="155.949" filterUnits="userSpaceOnUse" color-interpolation-filters="sRGB">
<feFlood flood-opacity="0" result="BackgroundImageFix"/>
<feColorMatrix in="SourceAlpha" type="matrix" values="0 0 0 0 0 0 0 0 0 0 0 0 0 0 0 0 0 0 127 0" result="hardAlpha"/>
<feOffset dy="24.6548"/>
<feGaussianBlur stdDeviation="16.4365"/>
<feColorMatrix type="matrix" values="0 0 0 0 0.318372 0 0 0 0 0.579167 0 0 0 0 0.154444 0 0 0 0.55 0"/>
<feBlend mode="normal" in2="BackgroundImageFix" result="effect1_dropShadow_1580_1678"/>
<feBlend mode="normal" in="SourceGraphic" in2="effect1_dropShadow_1580_1678" result="shape"/>
<feColorMatrix in="SourceAlpha" type="matrix" values="0 0 0 0 0 0 0 0 0 0 0 0 0 0 0 0 0 0 127 0" result="hardAlpha"/>
<feOffset dy="-11.5056"/>
<feGaussianBlur stdDeviation="18.902"/>
<feComposite in2="hardAlpha" operator="arithmetic" k2="-1" k3="1"/>
<feColorMatrix type="matrix" values="0 0 0 0 0 0 0 0 0 0 0 0 0 0 0 0 0 0 0.25 0"/>
<feBlend mode="normal" in2="shape" result="effect2_innerShadow_1580_1678"/>
<feColorMatrix in="SourceAlpha" type="matrix" values="0 0 0 0 0 0 0 0 0 0 0 0 0 0 0 0 0 0 127 0" result="hardAlpha"/>
<feOffset dy="-4.93096"/>
<feGaussianBlur stdDeviation="3.2873"/>
<feComposite in2="hardAlpha" operator="arithmetic" k2="-1" k3="1"/>
<feColorMatrix type="matrix" values="0 0 0 0 0.974333 0 0 0 0 1 0 0 0 0 0.954167 0 0 0 0.67 0"/>
<feBlend mode="normal" in2="effect2_innerShadow_1580_1678" result="effect3_innerShadow_1580_1678"/>
</filter>
<filter id="filter1_dii_1580_1678" x="44.2171" y="32.7144" width="70.3902" height="70.8035" filterUnits="userSpaceOnUse" color-interpolation-filters="sRGB">
<feFlood flood-opacity="0" result="BackgroundImageFix"/>
<feColorMatrix in="SourceAlpha" type="matrix" values="0 0 0 0 0 0 0 0 0 0 0 0 0 0 0 0 0 0 127 0" result="hardAlpha"/>
<feOffset dy="6.57461"/>
<feGaussianBlur stdDeviation="7.39643"/>
<feColorMatrix type="matrix" values="0 0 0 0 0 0 0 0 0 0 0 0 0 0 0 0 0 0 0.15 0"/>
<feBlend mode="normal" in2="BackgroundImageFix" result="effect1_dropShadow_1580_1678"/>
<feBlend mode="normal" in="SourceGraphic" in2="effect1_dropShadow_1580_1678" result="shape"/>
<feColorMatrix in="SourceAlpha" type="matrix" values="0 0 0 0 0 0 0 0 0 0 0 0 0 0 0 0 0 0 127 0" result="hardAlpha"/>
<feOffset dy="-8.21826"/>
<feGaussianBlur stdDeviation="4.10913"/>
<feComposite in2="hardAlpha" operator="arithmetic" k2="-1" k3="1"/>
<feColorMatrix type="matrix" values="0 0 0 0 0 0 0 0 0 0 0 0 0 0 0 0 0 0 0.25 0"/>
<feBlend mode="normal" in2="shape" result="effect2_innerShadow_1580_1678"/>
<feColorMatrix in="SourceAlpha" type="matrix" values="0 0 0 0 0 0 0 0 0 0 0 0 0 0 0 0 0 0 127 0" result="hardAlpha"/>
<feOffset dy="-4.93096"/>
<feGaussianBlur stdDeviation="4.93096"/>
<feComposite in2="hardAlpha" operator="arithmetic" k2="-1" k3="1"/>
<feColorMatrix type="matrix" values="0 0 0 0 1 0 0 0 0 1 0 0 0 0 1 0 0 0 0.85 0"/>
<feBlend mode="normal" in2="effect2_innerShadow_1580_1678" result="effect3_innerShadow_1580_1678"/>
</filter>
<linearGradient id="paint0_linear_1580_1678" x1="67.5985" y1="23.1365" x2="93.2994" y2="109.663" gradientUnits="userSpaceOnUse">
<stop stop-color="#EE7878"/>
<stop offset="1" stop-color="#C6512C"/>
</linearGradient>
</defs>
</svg>
