<svg width="554" height="717" viewBox="0 0 554 717" fill="none" xmlns="http://www.w3.org/2000/svg">
<path d="M249.443 -56.606C249.133 -39.3029 249.401 4.37491 269.636 30.8275C298.682 68.799 313.674 77.5447 341.204 95.5861C368.734 113.627 393.011 115.867 405.717 136.746C418.423 157.624 426.536 183.685 382.753 253.882C338.97 324.08 356.552 362.794 371.356 378.135C386.159 393.476 403.668 393.249 441.248 413.337C480.154 434.134 483.384 495.622 481.104 520.72C478.825 545.819 480.258 548.584 493.246 560.588C506.234 572.591 520.937 577.245 526.101 597.371C531.265 617.497 496.152 650.468 523.943 677.813C551.734 705.157 592.203 691.357 601.19 722.164C610.178 752.971 577.633 768.096 579.84 793.092C581.606 813.089 590.07 826.792 594.081 831.143" stroke="#FFF7DE" stroke-width="1.5"/>
<path d="M230.626 46.9929C267.57 39.1731 347.051 34.1306 369.416 76.519C397.372 129.504 359.354 143.45 347.98 207.185C336.725 270.255 403.467 290.171 421.377 326.262C433.663 351.019 424.684 369.579 415.397 400.233C406.109 430.887 382.646 473.119 449.883 521.783C517.121 570.446 508.91 574.245 527.015 610.627C545.119 647.009 572.628 654.831 584.695 682.115C602.295 721.907 564.832 748.92 547.094 797.866C532.904 837.023 553.979 879.543 566.29 895.908" stroke="#CF655E" stroke-width="1.5"/>
<circle cx="12.78" cy="12.78" r="12.78" transform="matrix(0.478435 0.878123 0.878123 -0.478435 214.755 42.5439)" fill="#FFF7DE"/>
<ellipse cx="18.9972" cy="19.3426" rx="18.9972" ry="19.3426" transform="matrix(0.478435 0.878123 0.878123 -0.478435 0 72.5088)" fill="url(#paint0_linear_1580_1629)"/>
<ellipse cx="7.25349" cy="7.59889" rx="7.25349" ry="7.59889" transform="matrix(0.478435 0.878123 0.878123 -0.478435 333.376 92.7705)" fill="#FFCF3D"/>
<circle cx="7.25349" cy="7.25349" r="7.25349" transform="matrix(0.478435 0.878123 0.878123 -0.478435 472 495.941)" fill="white"/>
<defs>
<linearGradient id="paint0_linear_1580_1629" x1="18.9972" y1="0" x2="18.9972" y2="38.6853" gradientUnits="userSpaceOnUse">
<stop stop-color="#EE7878"/>
<stop offset="1" stop-color="#C6512C"/>
</linearGradient>
</defs>
</svg>
